grf
version=1
nRows=19
nColumns=37
inDegrees=no
endheader
time	ground_force_1_vx	ground_force_1_vy	ground_force_1_vz	ground_force_1_px	ground_force_1_py	ground_force_1_pz	ground_moment_1_mx	ground_moment_1_my	ground_moment_1_mz	ground_force_2_vx	ground_force_2_vy	ground_force_2_vz	ground_force_2_px	ground_force_2_py	ground_force_2_pz	ground_moment_2_mx	ground_moment_2_my	ground_moment_2_mz	ground_force_3_vx	ground_force_3_vy	ground_force_3_vz	ground_force_3_px	ground_force_3_py	ground_force_3_pz	ground_moment_3_mx	ground_moment_3_my	ground_moment_3_mz	ground_force_4_vx	ground_force_4_vy	ground_force_4_vz	ground_force_4_px	ground_force_4_py	ground_force_4_pz	ground_moment_4_mx	ground_moment_4_my	ground_moment_4_mz
      5.15000000	      0.00000000	     -0.00000000	      0.00000000	      0.00000000	      0.00000000	      0.00000000	      0.00000000	      0.00000000	      0.00000000	     -1.11689663	      7.46555281	   -350.84936523	   -372.27190154	  -1086.10482305	      0.00000000	      0.00000000	      0.00000000	   3870.13081756	      1.01831358	     -8.89933595	   -375.68713379	   -382.78998926	   -717.06927239	      0.00000000	      0.00000000	     -0.00000000	  -3947.01256276	      0.00000000	     -0.00000000	      0.00000000	      0.00000000	      0.00000000	      0.00000000	      0.00000000	      0.00000000	      0.00000000
      5.16000000	      0.00000000	     -0.00000000	      0.00000000	      0.00000000	      0.00000000	      0.00000000	      0.00000000	      0.00000000	      0.00000000	     -1.09525037	      7.21956253	   -350.46517944	   -372.23335405	  -1086.56415837	      0.00000000	      0.00000000	      0.00000000	   3865.02796663	      2.11115471	     -9.11836356	   -376.97290039	   -383.81500989	   -718.81200448	      0.00000000	      0.00000000	     -0.00000000	  -3978.66034140	      0.00000000	     -0.00000000	      0.00000000	      0.00000000	      0.00000000	      0.00000000	      0.00000000	      0.00000000	      0.00000000
      5.17000000	      0.00000000	     -0.00000000	      0.00000000	      0.00000000	      0.00000000	      0.00000000	      0.00000000	      0.00000000	      0.00000000	     -0.87648851	      7.45947552	   -347.07876587	   -372.77992684	  -1085.11843989	      0.00000000	      0.00000000	      0.00000000	   3965.24613440	      2.97339243	     -8.81087615	   -379.61199951	   -383.32606802	   -717.72438171	      0.00000000	      0.00000000	     -0.00000000	  -4103.96847996	      0.00000000	     -0.00000000	      0.00000000	      0.00000000	      0.00000000	      0.00000000	      0.00000000	      0.00000000	      0.00000000
      5.18000000	      0.00000000	     -0.00000000	      0.00000000	      0.00000000	      0.00000000	      0.00000000	      0.00000000	      0.00000000	      0.00000000	      0.36227018	      7.55176783	   -346.81198120	   -373.21325603	  -1085.36939900	      0.00000000	      0.00000000	      0.00000000	   4048.96599158	      3.68295071	     -8.41191705	   -379.94995117	   -383.15359963	   -716.51805156	      0.00000000	      0.00000000	     -0.00000000	  -3987.19343570	      0.00000000	     -0.00000000	      0.00000000	      0.00000000	      0.00000000	      0.00000000	      0.00000000	      0.00000000	      0.00000000
      5.19000000	      0.00000000	     -0.00000000	      0.00000000	      0.00000000	      0.00000000	      0.00000000	      0.00000000	      0.00000000	      0.00000000	      1.67812514	      8.17831707	   -345.40997314	   -374.06480036	  -1086.19748473	      0.00000000	      0.00000000	      0.00000000	   3967.03980684	      3.85761449	     -8.51914821	   -379.17864990	   -382.48406480	   -716.37781041	      0.00000000	      0.00000000	     -0.00000000	  -4043.49220570	      0.00000000	     -0.00000000	      0.00000000	      0.00000000	      0.00000000	      0.00000000	      0.00000000	      0.00000000	      0.00000000
      5.20000000	      0.00000000	     -0.00000000	      0.00000000	      0.00000000	      0.00000000	      0.00000000	      0.00000000	      0.00000000	      0.00000000	      2.09101963	      7.88912487	   -344.78118896	   -373.78099398	  -1085.91674814	      0.00000000	      0.00000000	      0.00000000	   3671.28216807	      4.36841365	     -8.58869495	   -376.46109009	   -382.11717405	   -715.79858598	      0.00000000	     -0.00000000	     -0.00000000	  -4133.58405331	      0.00000000	     -0.00000000	      0.00000000	      0.00000000	      0.00000000	      0.00000000	      0.00000000	      0.00000000	      0.00000000
      5.21000000	      0.00000000	     -0.00000000	      0.00000000	      0.00000000	      0.00000000	      0.00000000	      0.00000000	      0.00000000	      0.00000000	      2.83481336	      7.69082594	   -344.60214233	   -373.43949193	  -1087.57744567	      0.00000000	      0.00000000	      0.00000000	   3677.88321667	      4.78827976	     -8.28068203	   -375.85757446	   -380.48942341	   -713.85760699	      0.00000000	      0.00000000	     -0.00000000	  -4131.71139111	      0.00000000	     -0.00000000	      0.00000000	      0.00000000	      0.00000000	      0.00000000	      0.00000000	      0.00000000	      0.00000000
      5.22000000	      0.00000000	     -0.00000000	      0.00000000	      0.00000000	      0.00000000	      0.00000000	      0.00000000	      0.00000000	      0.00000000	      2.36165857	      7.17741537	   -345.85623169	   -371.84411918	  -1088.65797263	      0.00000000	      0.00000000	      0.00000000	   3574.15024467	      4.70167085	     -8.56720393	   -373.67773438	   -379.37532559	   -714.15524883	      0.00000000	      0.00000000	     -0.00000000	  -4278.81594775	      0.00000000	     -0.00000000	      0.00000000	      0.00000000	      0.00000000	      0.00000000	      0.00000000	      0.00000000	      0.00000000
      5.23000000	      0.00000000	     -0.00000000	      0.00000000	      0.00000000	      0.00000000	      0.00000000	      0.00000000	      0.00000000	      0.00000000	      2.20829940	      6.82050896	   -342.58453369	   -371.92502848	  -1086.95189514	      0.00000000	      0.00000000	      0.00000000	   3878.63620492	      3.81456305	     -8.01558146	   -374.10675049	   -378.13341802	   -714.52394304	      0.00000000	      0.00000000	      0.00000000	  -4282.03653242	      0.00000000	     -0.00000000	      0.00000000	      0.00000000	      0.00000000	      0.00000000	      0.00000000	      0.00000000	      0.00000000
      5.24000000	      0.00000000	     -0.00000000	      0.00000000	      0.00000000	      0.00000000	      0.00000000	      0.00000000	      0.00000000	      0.00000000	      1.91749835	      6.19614410	   -340.81866455	   -371.75010624	  -1087.77383325	      0.00000000	      0.00000000	      0.00000000	   3913.78874211	      3.70524720	     -7.79407581	   -376.72473145	   -376.48614785	   -713.09202090	      0.00000000	     -0.00000000	     -0.00000000	  -4715.11312846	      0.00000000	     -0.00000000	      0.00000000	      0.00000000	      0.00000000	      0.00000000	      0.00000000	      0.00000000	      0.00000000
      5.25000000	      0.00000000	     -0.00000000	      0.00000000	      0.00000000	      0.00000000	      0.00000000	      0.00000000	      0.00000000	      0.00000000	      1.44787574	      6.21784210	   -341.43750000	   -370.14490664	  -1087.55420556	      0.00000000	      0.00000000	      0.00000000	   3958.36504817	      2.37326337	     -8.06010267	   -377.77813721	   -375.46731381	   -711.95988203	      0.00000000	      0.00000000	     -0.00000000	  -4656.69747856	      0.00000000	     -0.00000000	      0.00000000	      0.00000000	      0.00000000	      0.00000000	      0.00000000	      0.00000000	      0.00000000
      5.26000000	      0.00000000	     -0.00000000	      0.00000000	      0.00000000	      0.00000000	      0.00000000	      0.00000000	      0.00000000	      0.00000000	      1.69499969	      6.55189514	   -340.37557983	   -369.02461961	  -1088.01304899	      0.00000000	      0.00000000	      0.00000000	   4031.74705906	      1.10925734	     -8.19127951	   -378.48034668	   -374.39750377	   -711.23748886	      0.00000000	      0.00000000	      0.00000000	  -4816.38493007	      0.00000000	     -0.00000000	      0.00000000	      0.00000000	      0.00000000	      0.00000000	      0.00000000	      0.00000000	      0.00000000
      5.27000000	      0.00000000	     -0.00000000	      0.00000000	      0.00000000	      0.00000000	      0.00000000	      0.00000000	      0.00000000	      0.00000000	      1.40488625	      6.15023661	   -342.14425659	   -369.22969057	  -1089.68633763	      0.00000000	      0.00000000	      0.00000000	   4072.67033795	      0.31071023	     -8.76537135	   -377.34606934	   -373.42880026	   -710.92346228	      0.00000000	     -0.00000000	     -0.00000000	  -4775.92372660	      0.00000000	     -0.00000000	      0.00000000	      0.00000000	      0.00000000	      0.00000000	      0.00000000	      0.00000000	      0.00000000
      5.28000000	      0.00000000	     -0.00000000	      0.00000000	      0.00000000	      0.00000000	      0.00000000	      0.00000000	      0.00000000	      0.00000000	      1.60578644	      6.26141119	   -343.20260620	   -369.40846481	  -1089.44026020	      0.00000000	      0.00000000	      0.00000000	   3995.44484270	      0.93156549	     -8.52293976	   -376.64508057	   -373.43595150	   -711.76686168	      0.00000000	      0.00000000	     -0.00000000	  -4853.62549096	      0.00000000	     -0.00000000	      0.00000000	      0.00000000	      0.00000000	      0.00000000	      0.00000000	      0.00000000	      0.00000000
      5.29000000	      0.00000000	     -0.00000000	      0.00000000	      0.00000000	      0.00000000	      0.00000000	      0.00000000	      0.00000000	      0.00000000	      1.64998722	      6.43946791	   -343.11376953	   -370.23337797	  -1089.44050565	      0.00000000	     -0.00000000	      0.00000000	   4119.79854135	      1.13104653	     -8.19182120	   -378.74218750	   -373.03676548	   -710.40346728	      0.00000000	      0.00000000	     -0.00000000	  -4920.97636122	      0.00000000	     -0.00000000	      0.00000000	      0.00000000	      0.00000000	      0.00000000	      0.00000000	      0.00000000	      0.00000000
      5.30000000	      0.00000000	     -0.00000000	      0.00000000	      0.00000000	      0.00000000	      0.00000000	      0.00000000	      0.00000000	      0.00000000	      2.02883649	      6.12813616	   -340.72979736	   -368.93917994	  -1089.49543208	      0.00000000	      0.00000000	      0.00000000	   4334.79261646	      0.66550525	     -7.94825464	   -378.65426636	   -373.08343468	   -710.95120383	      0.00000000	     -0.00000000	      0.00000000	  -4842.17099502	      0.00000000	     -0.00000000	      0.00000000	      0.00000000	      0.00000000	      0.00000000	      0.00000000	      0.00000000	      0.00000000
      5.31000000	      0.00000000	     -0.00000000	      0.00000000	      0.00000000	      0.00000000	      0.00000000	      0.00000000	      0.00000000	      0.00000000	      0.82540196	      5.92594433	   -338.87130737	   -369.14036402	  -1089.99026264	      0.00000000	      0.00000000	      0.00000000	   3999.11863751	      0.75494936	     -7.88406712	   -379.17630005	   -372.77634507	   -709.84449074	      0.00000000	      0.00000000	      0.00000000	  -4753.85659510	      0.00000000	     -0.00000000	      0.00000000	      0.00000000	      0.00000000	      0.00000000	      0.00000000	      0.00000000	      0.00000000
      5.32000000	      0.00000000	     -0.00000000	      0.00000000	      0.00000000	      0.00000000	      0.00000000	      0.00000000	      0.00000000	      0.00000000	      0.98131561	      5.79347610	   -336.66543579	   -369.21837845	  -1089.70737545	      0.00000000	      0.00000000	      0.00000000	   4171.24000668	      1.19714215	     -7.83922587	   -379.78524780	   -372.67158150	   -710.55190821	      0.00000000	      0.00000000	     -0.00000000	  -4731.88249354	      0.00000000	     -0.00000000	      0.00000000	      0.00000000	      0.00000000	      0.00000000	      0.00000000	      0.00000000	      0.00000000
      5.33000000	      0.00000000	     -0.00000000	      0.00000000	      0.00000000	      0.00000000	      0.00000000	      0.00000000	      0.00000000	      0.00000000	      1.13846660	      5.28269577	   -336.04797363	   -368.62144535	  -1089.86513047	      0.00000000	      0.00000000	     -0.00000000	   4143.54978939	      1.44067934	     -7.81589187	   -382.93090820	   -372.11398242	   -710.43476483	      0.00000000	     -0.00000000	     -0.00000000	  -4781.87371939	      0.00000000	     -0.00000000	      0.00000000	      0.00000000	      0.00000000	      0.00000000	      0.00000000	      0.00000000	      0.00000000
